<?xml version="1.0" encoding="UTF-8" standalone="no"?>
<!DOCTYPE svg PUBLIC "-//W3C//DTD SVG 1.1//EN"
 "http://www.w3.org/Graphics/SVG/1.1/DTD/svg11.dtd">
<!-- Generated by graphviz version 2.40.1 (20161225.0304)
 -->
<!-- Title: CBNR Pages: 1 -->
<svg width="658pt" height="1002pt"
 viewBox="0.00 0.00 658.00 1002.40" xmlns="http://www.w3.org/2000/svg" xmlns:xlink="http://www.w3.org/1999/xlink">
<g id="graph0" class="graph" transform="scale(1 1) rotate(0) translate(4 998.4)">
<title>CBNR</title>
<polygon fill="#ffffff" stroke="transparent" points="-4,4 -4,-998.4 654,-998.4 654,4 -4,4"/>
<g id="clust1" class="cluster">
<title>cluster_src</title>
<path fill="#f2f7fb" stroke="#7aa8d6" d="M141,-801.6C141,-801.6 335,-801.6 335,-801.6 341,-801.6 347,-807.6 347,-813.6 347,-813.6 347,-974.4 347,-974.4 347,-980.4 341,-986.4 335,-986.4 335,-986.4 141,-986.4 141,-986.4 135,-986.4 129,-980.4 129,-974.4 129,-974.4 129,-813.6 129,-813.6 129,-807.6 135,-801.6 141,-801.6"/>
<text text-anchor="middle" x="238" y="-971.6" font-family="Helvetica,sans-Serif" font-size="12.00" fill="#1f4e79">1. Literature acquisition / 文献获取</text>
</g>
<g id="clust2" class="cluster">
<title>cluster_extract</title>
<path fill="#fff7e6" stroke="#e0a958" d="M135,-567.4C135,-567.4 428,-567.4 428,-567.4 434,-567.4 440,-573.4 440,-579.4 440,-579.4 440,-768.6 440,-768.6 440,-774.6 434,-780.6 428,-780.6 428,-780.6 135,-780.6 135,-780.6 129,-780.6 123,-774.6 123,-768.6 123,-768.6 123,-579.4 123,-579.4 123,-573.4 129,-567.4 135,-567.4"/>
<text text-anchor="middle" x="281.5" y="-765.8" font-family="Helvetica,sans-Serif" font-size="12.00" fill="#8c5a1f">2. LLM&#45;assisted extraction / LLM 辅助信息抽取</text>
</g>
<g id="clust3" class="cluster">
<title>cluster_clean</title>
<path fill="#f0f7f0" stroke="#7ab07a" d="M80,-222C80,-222 624,-222 624,-222 630,-222 636,-228 636,-234 636,-234 636,-534.4 636,-534.4 636,-540.4 630,-546.4 624,-546.4 624,-546.4 80,-546.4 80,-546.4 74,-546.4 68,-540.4 68,-534.4 68,-534.4 68,-234 68,-234 68,-228 74,-222 80,-222"/>
<text text-anchor="middle" x="352" y="-531.6" font-family="Helvetica,sans-Serif" font-size="12.00" fill="#2e5e2e">3. Quality control &amp; taxonomic harmonisation / 质控与分类规范化</text>
</g>
<g id="clust4" class="cluster">
<title>cluster_ana</title>
<path fill="#fbf1f4" stroke="#d88aad" d="M20,-115C20,-115 628,-115 628,-115 634,-115 640,-121 640,-127 640,-127 640,-189 640,-189 640,-195 634,-201 628,-201 628,-201 20,-201 20,-201 14,-201 8,-195 8,-189 8,-189 8,-127 8,-127 8,-121 14,-115 20,-115"/>
<text text-anchor="middle" x="324" y="-186.2" font-family="Helvetica,sans-Serif" font-size="12.00" fill="#6e2d54">4. Downstream analyses / 下游分析模块</text>
</g>
<g id="clust5" class="cluster">
<title>cluster_out</title>
<path fill="#f4eefa" stroke="#9966cc" d="M144,-8C144,-8 630,-8 630,-8 636,-8 642,-14 642,-20 642,-20 642,-82 642,-82 642,-88 636,-94 630,-94 630,-94 144,-94 144,-94 138,-94 132,-88 132,-82 132,-82 132,-20 132,-20 132,-14 138,-8 144,-8"/>
<text text-anchor="middle" x="387" y="-79.2" font-family="Helvetica,sans-Serif" font-size="12.00" fill="#552e80">5. Manuscript outputs / 稿件产出</text>
</g>
<!-- cnki -->
<g id="node1" class="node">
<title>cnki</title>
<path fill="#ffffff" stroke="#444444" stroke-width="1.1" d="M327.7373,-956.2024C327.7373,-956.2024 272.2627,-956.2024 272.2627,-956.2024 266.462,-956.2024 260.6612,-950.4016 260.6612,-944.6008 260.6612,-944.6008 260.6612,-932.9992 260.6612,-932.9992 260.6612,-927.1984 266.462,-921.3976 272.2627,-921.3976 272.2627,-921.3976 327.7373,-921.3976 327.7373,-921.3976 333.538,-921.3976 339.3388,-927.1984 339.3388,-932.9992 339.3388,-932.9992 339.3388,-944.6008 339.3388,-944.6008 339.3388,-950.4016 333.538,-956.2024 327.7373,-956.2024"/>
<text text-anchor="middle" x="300" y="-942.1" font-family="Helvetica,sans-Serif" font-size="11.00" fill="#000000">CNKI search</text>
<text text-anchor="middle" x="300" y="-928.9" font-family="Helvetica,sans-Serif" font-size="11.00" fill="#000000">(Chinese)</text>
</g>
<!-- pdfs -->
<g id="node3" class="node">
<title>pdfs</title>
<path fill="#d9e7f4" stroke="#444444" stroke-width="1.1" d="M312.9763,-838.6C312.9763,-838.6 217.0237,-838.6 217.0237,-838.6 212.1904,-838.6 207.357,-833.7667 207.357,-828.9333 207.357,-828.9333 207.357,-819.2667 207.357,-819.2667 207.357,-814.4333 212.1904,-809.6 217.0237,-809.6 217.0237,-809.6 312.9763,-809.6 312.9763,-809.6 317.8096,-809.6 322.643,-814.4333 322.643,-819.2667 322.643,-819.2667 322.643,-828.9333 322.643,-828.9333 322.643,-833.7667 317.8096,-838.6 312.9763,-838.6"/>
<text text-anchor="middle" x="265" y="-820.8" font-family="Helvetica,sans-Serif" font-size="11.00" fill="#000000">764 candidate PDFs</text>
</g>
<!-- cnki&#45;&gt;pdfs -->
<g id="edge1" class="edge">
<title>cnki&#45;&gt;pdfs</title>
<path fill="none" stroke="#666666" d="M291.8261,-921.3795C291.8261,-921.3795 291.8261,-845.7652 291.8261,-845.7652"/>
<polygon fill="#666666" stroke="#666666" points="294.2762,-845.7652 291.8261,-838.7652 289.3762,-845.7653 294.2762,-845.7652"/>
</g>
<!-- gsch -->
<g id="node2" class="node">
<title>gsch</title>
<path fill="#ffffff" stroke="#444444" stroke-width="1.1" d="M217.1964,-956.2024C217.1964,-956.2024 148.8036,-956.2024 148.8036,-956.2024 143.0029,-956.2024 137.2021,-950.4016 137.2021,-944.6008 137.2021,-944.6008 137.2021,-932.9992 137.2021,-932.9992 137.2021,-927.1984 143.0029,-921.3976 148.8036,-921.3976 148.8036,-921.3976 217.1964,-921.3976 217.1964,-921.3976 222.9971,-921.3976 228.7979,-927.1984 228.7979,-932.9992 228.7979,-932.9992 228.7979,-944.6008 228.7979,-944.6008 228.7979,-950.4016 222.9971,-956.2024 217.1964,-956.2024"/>
<text text-anchor="middle" x="183" y="-942.1" font-family="Helvetica,sans-Serif" font-size="11.00" fill="#000000">Google Scholar</text>
<text text-anchor="middle" x="183" y="-928.9" font-family="Helvetica,sans-Serif" font-size="11.00" fill="#000000">(English)</text>
</g>
<!-- gsch&#45;&gt;pdfs -->
<g id="edge2" class="edge">
<title>gsch&#45;&gt;pdfs</title>
<path fill="none" stroke="#666666" d="M218.0388,-921.3795C218.0388,-921.3795 218.0388,-845.7652 218.0388,-845.7652"/>
<polygon fill="#666666" stroke="#666666" points="220.4889,-845.7652 218.0388,-838.7652 215.5889,-845.7653 220.4889,-845.7652"/>
</g>
<!-- llm -->
<g id="node4" class="node">
<title>llm</title>
<path fill="#ffffff" stroke="#444444" stroke-width="1.1" d="M315.4984,-750.0017C315.4984,-750.0017 214.5016,-750.0017 214.5016,-750.0017 208.5016,-750.0017 202.5016,-744.0017 202.5016,-738.0017 202.5016,-738.0017 202.5016,-714.7983 202.5016,-714.7983 202.5016,-708.7983 208.5016,-702.7983 214.5016,-702.7983 214.5016,-702.7983 315.4984,-702.7983 315.4984,-702.7983 321.4984,-702.7983 327.4984,-708.7983 327.4984,-714.7983 327.4984,-714.7983 327.4984,-738.0017 327.4984,-738.0017 327.4984,-744.0017 321.4984,-750.0017 315.4984,-750.0017"/>
<text text-anchor="middle" x="265" y="-736.3" font-family="Helvetica,sans-Serif" font-size="11.00" fill="#000000">GPT&#45;class LLM</text>
<text text-anchor="middle" x="265" y="-723.1" font-family="Helvetica,sans-Serif" font-size="11.00" fill="#000000">+ schema&#45;constrained</text>
<text text-anchor="middle" x="265" y="-709.9" font-family="Helvetica,sans-Serif" font-size="11.00" fill="#000000">prompt</text>
</g>
<!-- pdfs&#45;&gt;llm -->
<g id="edge3" class="edge">
<title>pdfs&#45;&gt;llm</title>
<path fill="none" stroke="#666666" d="M265,-809.2615C265,-809.2615 265,-757.1381 265,-757.1381"/>
<polygon fill="#666666" stroke="#666666" points="267.4501,-757.1381 265,-750.1381 262.5501,-757.1382 267.4501,-757.1381"/>
</g>
<!-- calib -->
<g id="node5" class="node">
<title>calib</title>
<path fill="#ffffff" stroke="#444444" stroke-width="1.1" d="M257.7597,-610.0024C257.7597,-610.0024 142.2403,-610.0024 142.2403,-610.0024 136.4395,-610.0024 130.6387,-604.2016 130.6387,-598.4008 130.6387,-598.4008 130.6387,-586.7992 130.6387,-586.7992 130.6387,-580.9984 136.4395,-575.1976 142.2403,-575.1976 142.2403,-575.1976 257.7597,-575.1976 257.7597,-575.1976 263.5605,-575.1976 269.3613,-580.9984 269.3613,-586.7992 269.3613,-586.7992 269.3613,-598.4008 269.3613,-598.4008 269.3613,-604.2016 263.5605,-610.0024 257.7597,-610.0024"/>
<text text-anchor="middle" x="200" y="-595.9" font-family="Helvetica,sans-Serif" font-size="11.00" fill="#000000">100&#45;paper calibration</text>
<text text-anchor="middle" x="200" y="-582.7" font-family="Helvetica,sans-Serif" font-size="11.00" fill="#000000">benchmark (&gt;=98% acc.)</text>
</g>
<!-- llm&#45;&gt;calib -->
<g id="edge5" class="edge">
<title>llm&#45;&gt;calib</title>
<path fill="none" stroke="#666666" stroke-dasharray="5,2" d="M247.2042,-702.7872C247.2042,-702.7872 247.2042,-617.0159 247.2042,-617.0159"/>
<polygon fill="#666666" stroke="#666666" points="249.6543,-617.0158 247.2042,-610.0159 244.7543,-617.0159 249.6543,-617.0158"/>
</g>
<!-- raw -->
<g id="node6" class="node">
<title>raw</title>
<path fill="#ffe5b5" stroke="#444444" stroke-width="1.1" d="M420.8012,-610.0024C420.8012,-610.0024 313.1988,-610.0024 313.1988,-610.0024 307.398,-610.0024 301.5973,-604.2016 301.5973,-598.4008 301.5973,-598.4008 301.5973,-586.7992 301.5973,-586.7992 301.5973,-580.9984 307.398,-575.1976 313.1988,-575.1976 313.1988,-575.1976 420.8012,-575.1976 420.8012,-575.1976 426.602,-575.1976 432.4027,-580.9984 432.4027,-586.7992 432.4027,-586.7992 432.4027,-598.4008 432.4027,-598.4008 432.4027,-604.2016 426.602,-610.0024 420.8012,-610.0024"/>
<text text-anchor="middle" x="367" y="-595.9" font-family="Helvetica,sans-Serif" font-size="11.00" fill="#000000">Raw extracted table</text>
<text text-anchor="middle" x="367" y="-582.7" font-family="Helvetica,sans-Serif" font-size="11.00" fill="#000000">(1,025 rows × 38 fields)</text>
</g>
<!-- llm&#45;&gt;raw -->
<g id="edge4" class="edge">
<title>llm&#45;&gt;raw</title>
<path fill="none" stroke="#666666" d="M314.3987,-702.7872C314.3987,-702.7872 314.3987,-617.0159 314.3987,-617.0159"/>
<polygon fill="#666666" stroke="#666666" points="316.8488,-617.0158 314.3987,-610.0159 311.9488,-617.0159 316.8488,-617.0158"/>
</g>
<!-- calib&#45;&gt;llm -->
<g id="edge6" class="edge">
<title>calib&#45;&gt;llm</title>
<path fill="none" stroke="#666666" stroke-dasharray="5,2" d="M224.9777,-609.8181C224.9777,-609.8181 224.9777,-695.4732 224.9777,-695.4732"/>
<polygon fill="#666666" stroke="#666666" points="222.5278,-695.4732 224.9777,-702.4732 227.4278,-695.4732 222.5278,-695.4732"/>
<text text-anchor="middle" x="296.2543" y="-653.5" font-family="Helvetica,sans-Serif" font-size="9.00" fill="#000000">prompt iteration</text>
</g>
<!-- tax -->
<g id="node7" class="node">
<title>tax</title>
<path fill="#ffffff" stroke="#444444" stroke-width="1.1" d="M306.4255,-516.2024C306.4255,-516.2024 155.5745,-516.2024 155.5745,-516.2024 149.7737,-516.2024 143.9729,-510.4016 143.9729,-504.6008 143.9729,-504.6008 143.9729,-492.9992 143.9729,-492.9992 143.9729,-487.1984 149.7737,-481.3976 155.5745,-481.3976 155.5745,-481.3976 306.4255,-481.3976 306.4255,-481.3976 312.2263,-481.3976 318.0271,-487.1984 318.0271,-492.9992 318.0271,-492.9992 318.0271,-504.6008 318.0271,-504.6008 318.0271,-510.4016 312.2263,-516.2024 306.4255,-516.2024"/>
<text text-anchor="middle" x="231" y="-502.1" font-family="Helvetica,sans-Serif" font-size="11.00" fill="#000000">Taxonomic harmonisation</text>
<text text-anchor="middle" x="231" y="-488.9" font-family="Helvetica,sans-Serif" font-size="11.00" fill="#000000">(CoL China 2025 + Zheng 2023)</text>
</g>
<!-- raw&#45;&gt;tax -->
<g id="edge7" class="edge">
<title>raw&#45;&gt;tax</title>
<path fill="none" stroke="#666666" d="M309.7811,-575.3956C309.7811,-575.3956 309.7811,-523.213 309.7811,-523.213"/>
<polygon fill="#666666" stroke="#666666" points="312.2312,-523.2129 309.7811,-516.213 307.3312,-523.213 312.2312,-523.2129"/>
</g>
<!-- coord -->
<g id="node8" class="node">
<title>coord</title>
<path fill="#ffffff" stroke="#444444" stroke-width="1.1" d="M412.3462,-398.8024C412.3462,-398.8024 291.6538,-398.8024 291.6538,-398.8024 285.853,-398.8024 280.0522,-393.0016 280.0522,-387.2008 280.0522,-387.2008 280.0522,-375.5992 280.0522,-375.5992 280.0522,-369.7984 285.853,-363.9976 291.6538,-363.9976 291.6538,-363.9976 412.3462,-363.9976 412.3462,-363.9976 418.147,-363.9976 423.9478,-369.7984 423.9478,-375.5992 423.9478,-375.5992 423.9478,-387.2008 423.9478,-387.2008 423.9478,-393.0016 418.147,-398.8024 412.3462,-398.8024"/>
<text text-anchor="middle" x="352" y="-384.7" font-family="Helvetica,sans-Serif" font-size="11.00" fill="#000000">Coordinate plausibility</text>
<text text-anchor="middle" x="352" y="-371.5" font-family="Helvetica,sans-Serif" font-size="11.00" fill="#000000">(lat/lon range, lon=lat flag)</text>
</g>
<!-- raw&#45;&gt;coord -->
<g id="edge9" class="edge">
<title>raw&#45;&gt;coord</title>
<path fill="none" stroke="#666666" d="M370.8686,-575.3166C370.8686,-575.3166 370.8686,-405.626 370.8686,-405.626"/>
<polygon fill="#666666" stroke="#666666" points="373.3186,-405.626 370.8686,-398.626 368.4186,-405.626 373.3186,-405.626"/>
</g>
<!-- yrflag -->
<g id="node10" class="node">
<title>yrflag</title>
<path fill="#ffffff" stroke="#444444" stroke-width="1.1" d="M616.5919,-398.8024C616.5919,-398.8024 467.4081,-398.8024 467.4081,-398.8024 461.6073,-398.8024 455.8065,-393.0016 455.8065,-387.2008 455.8065,-387.2008 455.8065,-375.5992 455.8065,-375.5992 455.8065,-369.7984 461.6073,-363.9976 467.4081,-363.9976 467.4081,-363.9976 616.5919,-363.9976 616.5919,-363.9976 622.3927,-363.9976 628.1935,-369.7984 628.1935,-375.5992 628.1935,-375.5992 628.1935,-387.2008 628.1935,-387.2008 628.1935,-393.0016 622.3927,-398.8024 616.5919,-398.8024"/>
<text text-anchor="middle" x="542" y="-384.7" font-family="Helvetica,sans-Serif" font-size="11.00" fill="#000000">Year scope flag</text>
<text text-anchor="middle" x="542" y="-371.5" font-family="Helvetica,sans-Serif" font-size="11.00" fill="#000000">(year_in_scope = year &gt;= 2000)</text>
</g>
<!-- raw&#45;&gt;yrflag -->
<g id="edge10" class="edge">
<title>raw&#45;&gt;yrflag</title>
<path fill="none" stroke="#666666" d="M426.6328,-575.0707C426.6328,-525.3508 426.6328,-387 426.6328,-387 426.6328,-387 448.7448,-387 448.7448,-387"/>
<polygon fill="#666666" stroke="#666666" points="448.7449,-389.4501 455.7448,-387 448.7448,-384.5501 448.7449,-389.4501"/>
</g>
<!-- dedup -->
<g id="node9" class="node">
<title>dedup</title>
<path fill="#ffffff" stroke="#444444" stroke-width="1.1" d="M202.7421,-398.8024C202.7421,-398.8024 87.2579,-398.8024 87.2579,-398.8024 81.4571,-398.8024 75.6563,-393.0016 75.6563,-387.2008 75.6563,-387.2008 75.6563,-375.5992 75.6563,-375.5992 75.6563,-369.7984 81.4571,-363.9976 87.2579,-363.9976 87.2579,-363.9976 202.7421,-363.9976 202.7421,-363.9976 208.5429,-363.9976 214.3437,-369.7984 214.3437,-375.5992 214.3437,-375.5992 214.3437,-387.2008 214.3437,-387.2008 214.3437,-393.0016 208.5429,-398.8024 202.7421,-398.8024"/>
<text text-anchor="middle" x="145" y="-384.7" font-family="Helvetica,sans-Serif" font-size="11.00" fill="#000000">Species&#45;province dedup</text>
<text text-anchor="middle" x="145" y="-371.5" font-family="Helvetica,sans-Serif" font-size="11.00" fill="#000000">(earliest publication year)</text>
</g>
<!-- tax&#45;&gt;dedup -->
<g id="edge8" class="edge">
<title>tax&#45;&gt;dedup</title>
<path fill="none" stroke="#666666" d="M179.2041,-481.4772C179.2041,-481.4772 179.2041,-405.7938 179.2041,-405.7938"/>
<polygon fill="#666666" stroke="#666666" points="181.6542,-405.7938 179.2041,-398.7938 176.7542,-405.7939 181.6542,-405.7938"/>
</g>
<!-- canon -->
<g id="node11" class="node">
<title>canon</title>
<path fill="#c8e6c9" stroke="#444444" stroke-width="1.1" d="M426.0208,-281.3004C426.0208,-281.3004 245.9792,-281.3004 245.9792,-281.3004 239.9792,-281.3004 233.9792,-275.3004 233.9792,-269.3004 233.9792,-269.3004 233.9792,-241.8996 233.9792,-241.8996 233.9792,-235.8996 239.9792,-229.8996 245.9792,-229.8996 245.9792,-229.8996 426.0208,-229.8996 426.0208,-229.8996 432.0208,-229.8996 438.0208,-235.8996 438.0208,-241.8996 438.0208,-241.8996 438.0208,-269.3004 438.0208,-269.3004 438.0208,-275.3004 432.0208,-281.3004 426.0208,-281.3004"/>
<text text-anchor="middle" x="336" y="-266.4" font-family="Helvetica,sans-Serif" font-size="12.00" fill="#000000">CANONICAL ANALYTICAL TABLE</text>
<text text-anchor="middle" x="336" y="-252" font-family="Helvetica,sans-Serif" font-size="12.00" fill="#000000">1,020 events · 564 species</text>
<text text-anchor="middle" x="336" y="-237.6" font-family="Helvetica,sans-Serif" font-size="12.00" fill="#000000">23 orders · 33 provinces</text>
</g>
<!-- tax&#45;&gt;canon -->
<g id="edge11" class="edge">
<title>tax&#45;&gt;canon</title>
<path fill="none" stroke="#666666" d="M264.8475,-481.3097C264.8475,-481.3097 264.8475,-288.4683 264.8475,-288.4683"/>
<polygon fill="#666666" stroke="#666666" points="267.2976,-288.4682 264.8475,-281.4683 262.3976,-288.4683 267.2976,-288.4682"/>
</g>
<!-- coord&#45;&gt;canon -->
<g id="edge12" class="edge">
<title>coord&#45;&gt;canon</title>
<path fill="none" stroke="#666666" d="M352,-364.1718C352,-364.1718 352,-288.3337 352,-288.3337"/>
<polygon fill="#666666" stroke="#666666" points="354.4501,-288.3337 352,-281.3337 349.5501,-288.3338 354.4501,-288.3337"/>
</g>
<!-- dedup&#45;&gt;canon -->
<g id="edge13" class="edge">
<title>dedup&#45;&gt;canon</title>
<path fill="none" stroke="#666666" d="M214.3582,-381C233.6445,-381 249.4186,-381 249.4186,-381 249.4186,-381 249.4186,-288.2792 249.4186,-288.2792"/>
<polygon fill="#666666" stroke="#666666" points="251.8686,-288.2791 249.4186,-281.2792 246.9686,-288.2792 251.8686,-288.2791"/>
</g>
<!-- yrflag&#45;&gt;canon -->
<g id="edge14" class="edge">
<title>yrflag&#45;&gt;canon</title>
<path fill="none" stroke="#666666" d="M455.6249,-375C440.5243,-375 429.5421,-375 429.5421,-375 429.5421,-375 429.5421,-288.2143 429.5421,-288.2143"/>
<polygon fill="#666666" stroke="#666666" points="431.9922,-288.2143 429.5421,-281.2143 427.0922,-288.2143 431.9922,-288.2143"/>
</g>
<!-- phy -->
<g id="node12" class="node">
<title>phy</title>
<path fill="#ffffff" stroke="#444444" stroke-width="1.1" d="M101.8929,-170.4017C101.8929,-170.4017 28.1071,-170.4017 28.1071,-170.4017 22.1071,-170.4017 16.1071,-164.4017 16.1071,-158.4017 16.1071,-158.4017 16.1071,-135.1983 16.1071,-135.1983 16.1071,-129.1983 22.1071,-123.1983 28.1071,-123.1983 28.1071,-123.1983 101.8929,-123.1983 101.8929,-123.1983 107.8929,-123.1983 113.8929,-129.1983 113.8929,-135.1983 113.8929,-135.1983 113.8929,-158.4017 113.8929,-158.4017 113.8929,-164.4017 107.8929,-170.4017 101.8929,-170.4017"/>
<text text-anchor="middle" x="65" y="-156.7" font-family="Helvetica,sans-Serif" font-size="11.00" fill="#000000">Phylogenetic</text>
<text text-anchor="middle" x="65" y="-143.5" font-family="Helvetica,sans-Serif" font-size="11.00" fill="#000000">coverage</text>
<text text-anchor="middle" x="65" y="-130.3" font-family="Helvetica,sans-Serif" font-size="11.00" fill="#000000">(McTavish 2025)</text>
</g>
<!-- canon&#45;&gt;phy -->
<g id="edge15" class="edge">
<title>canon&#45;&gt;phy</title>
<path fill="none" stroke="#666666" d="M233.6935,-255C167.9442,-255 94.7623,-255 94.7623,-255 94.7623,-255 94.7623,-177.5449 94.7623,-177.5449"/>
<polygon fill="#666666" stroke="#666666" points="97.2124,-177.5449 94.7623,-170.5449 92.3124,-177.545 97.2124,-177.5449"/>
</g>
<!-- sp -->
<g id="node13" class="node">
<title>sp</title>
<path fill="#ffffff" stroke="#444444" stroke-width="1.1" d="M227.8151,-170.4017C227.8151,-170.4017 158.1849,-170.4017 158.1849,-170.4017 152.1849,-170.4017 146.1849,-164.4017 146.1849,-158.4017 146.1849,-158.4017 146.1849,-135.1983 146.1849,-135.1983 146.1849,-129.1983 152.1849,-123.1983 158.1849,-123.1983 158.1849,-123.1983 227.8151,-123.1983 227.8151,-123.1983 233.8151,-123.1983 239.8151,-129.1983 239.8151,-135.1983 239.8151,-135.1983 239.8151,-158.4017 239.8151,-158.4017 239.8151,-164.4017 233.8151,-170.4017 227.8151,-170.4017"/>
<text text-anchor="middle" x="193" y="-156.7" font-family="Helvetica,sans-Serif" font-size="11.00" fill="#000000">Spatiotemporal</text>
<text text-anchor="middle" x="193" y="-143.5" font-family="Helvetica,sans-Serif" font-size="11.00" fill="#000000">patterns</text>
<text text-anchor="middle" x="193" y="-130.3" font-family="Helvetica,sans-Serif" font-size="11.00" fill="#000000">(sf + Albers EA)</text>
</g>
<!-- canon&#45;&gt;sp -->
<g id="edge16" class="edge">
<title>canon&#45;&gt;sp</title>
<path fill="none" stroke="#666666" d="M243.5945,-229.962C243.5945,-199.8639 243.5945,-154 243.5945,-154 243.5945,-154 243.2307,-154 243.2307,-154"/>
<polygon fill="#666666" stroke="#666666" points="246.956,-151.5502 239.9559,-154 246.9558,-156.4502 246.956,-151.5502"/>
</g>
<!-- sk -->
<g id="node14" class="node">
<title>sk</title>
<path fill="#ffffff" stroke="#444444" stroke-width="1.1" d="M388.4637,-170.4017C388.4637,-170.4017 283.5363,-170.4017 283.5363,-170.4017 277.5363,-170.4017 271.5363,-164.4017 271.5363,-158.4017 271.5363,-158.4017 271.5363,-135.1983 271.5363,-135.1983 271.5363,-129.1983 277.5363,-123.1983 283.5363,-123.1983 283.5363,-123.1983 388.4637,-123.1983 388.4637,-123.1983 394.4637,-123.1983 400.4637,-129.1983 400.4637,-135.1983 400.4637,-135.1983 400.4637,-158.4017 400.4637,-158.4017 400.4637,-164.4017 394.4637,-170.4017 388.4637,-170.4017"/>
<text text-anchor="middle" x="336" y="-156.7" font-family="Helvetica,sans-Serif" font-size="11.00" fill="#000000">Sankey flow</text>
<text text-anchor="middle" x="336" y="-143.5" font-family="Helvetica,sans-Serif" font-size="11.00" fill="#000000">Order–Province–Year</text>
<text text-anchor="middle" x="336" y="-130.3" font-family="Helvetica,sans-Serif" font-size="11.00" fill="#000000">(ggalluvial)</text>
</g>
<!-- canon&#45;&gt;sk -->
<g id="edge17" class="edge">
<title>canon&#45;&gt;sk</title>
<path fill="none" stroke="#666666" d="M336,-229.8159C336,-229.8159 336,-177.5401 336,-177.5401"/>
<polygon fill="#666666" stroke="#666666" points="338.4501,-177.54 336,-170.5401 333.5501,-177.5401 338.4501,-177.54"/>
</g>
<!-- qc -->
<g id="node15" class="node">
<title>qc</title>
<path fill="#ffffff" stroke="#444444" stroke-width="1.1" d="M492.2412,-170.4017C492.2412,-170.4017 443.7588,-170.4017 443.7588,-170.4017 437.7588,-170.4017 431.7588,-164.4017 431.7588,-158.4017 431.7588,-158.4017 431.7588,-135.1983 431.7588,-135.1983 431.7588,-129.1983 437.7588,-123.1983 443.7588,-123.1983 443.7588,-123.1983 492.2412,-123.1983 492.2412,-123.1983 498.2412,-123.1983 504.2412,-129.1983 504.2412,-135.1983 504.2412,-135.1983 504.2412,-158.4017 504.2412,-158.4017 504.2412,-164.4017 498.2412,-170.4017 492.2412,-170.4017"/>
<text text-anchor="middle" x="468" y="-156.7" font-family="Helvetica,sans-Serif" font-size="11.00" fill="#000000">QC</text>
<text text-anchor="middle" x="468" y="-143.5" font-family="Helvetica,sans-Serif" font-size="11.00" fill="#000000">before/after</text>
<text text-anchor="middle" x="468" y="-130.3" font-family="Helvetica,sans-Serif" font-size="11.00" fill="#000000">diagnostics</text>
</g>
<!-- canon&#45;&gt;qc -->
<g id="edge18" class="edge">
<title>canon&#45;&gt;qc</title>
<path fill="none" stroke="#666666" d="M425.9376,-229.9037C425.9376,-197.5092 425.9376,-146 425.9376,-146 425.9376,-146 426.5225,-146 426.5225,-146"/>
<polygon fill="#666666" stroke="#666666" points="424.7862,-148.4501 431.7862,-146 424.7861,-143.5501 424.7862,-148.4501"/>
</g>
<!-- ord -->
<g id="node16" class="node">
<title>ord</title>
<path fill="#ffffff" stroke="#444444" stroke-width="1.1" d="M619.9386,-170.4017C619.9386,-170.4017 548.0614,-170.4017 548.0614,-170.4017 542.0614,-170.4017 536.0614,-164.4017 536.0614,-158.4017 536.0614,-158.4017 536.0614,-135.1983 536.0614,-135.1983 536.0614,-129.1983 542.0614,-123.1983 548.0614,-123.1983 548.0614,-123.1983 619.9386,-123.1983 619.9386,-123.1983 625.9386,-123.1983 631.9386,-129.1983 631.9386,-135.1983 631.9386,-135.1983 631.9386,-158.4017 631.9386,-158.4017 631.9386,-164.4017 625.9386,-170.4017 619.9386,-170.4017"/>
<text text-anchor="middle" x="584" y="-156.7" font-family="Helvetica,sans-Serif" font-size="11.00" fill="#000000">Order&#45;level</text>
<text text-anchor="middle" x="584" y="-143.5" font-family="Helvetica,sans-Serif" font-size="11.00" fill="#000000">coverage table</text>
<text text-anchor="middle" x="584" y="-130.3" font-family="Helvetica,sans-Serif" font-size="11.00" fill="#000000">(Wilson 95% CI)</text>
</g>
<!-- canon&#45;&gt;ord -->
<g id="edge19" class="edge">
<title>canon&#45;&gt;ord</title>
<path fill="none" stroke="#666666" d="M438.2675,-255C505.9076,-255 582.189,-255 582.189,-255 582.189,-255 582.189,-177.5449 582.189,-177.5449"/>
<polygon fill="#666666" stroke="#666666" points="584.639,-177.5449 582.189,-170.5449 579.739,-177.545 584.639,-177.5449"/>
</g>
<!-- f1 -->
<g id="node17" class="node">
<title>f1</title>
<path fill="#e1d5f0" stroke="#444444" stroke-width="1.1" d="M235.962,-57.2024C235.962,-57.2024 152.038,-57.2024 152.038,-57.2024 146.2373,-57.2024 140.4365,-51.4016 140.4365,-45.6008 140.4365,-45.6008 140.4365,-33.9992 140.4365,-33.9992 140.4365,-28.1984 146.2373,-22.3976 152.038,-22.3976 152.038,-22.3976 235.962,-22.3976 235.962,-22.3976 241.7627,-22.3976 247.5635,-28.1984 247.5635,-33.9992 247.5635,-33.9992 247.5635,-45.6008 247.5635,-45.6008 247.5635,-51.4016 241.7627,-57.2024 235.962,-57.2024"/>
<text text-anchor="middle" x="194" y="-43.1" font-family="Helvetica,sans-Serif" font-size="11.00" fill="#000000">Figure 1</text>
<text text-anchor="middle" x="194" y="-29.9" font-family="Helvetica,sans-Serif" font-size="11.00" fill="#000000">Circular phylogeny</text>
</g>
<!-- phy&#45;&gt;f1 -->
<g id="edge20" class="edge">
<title>phy&#45;&gt;f1</title>
<path fill="none" stroke="#666666" d="M65,-123.1428C65,-91.4101 65,-39 65,-39 65,-39 133.4131,-39 133.4131,-39"/>
<polygon fill="#666666" stroke="#666666" points="133.4131,-41.4501 140.4131,-39 133.413,-36.5501 133.4131,-41.4501"/>
</g>
<!-- f2 -->
<g id="node18" class="node">
<title>f2</title>
<path fill="#e1d5f0" stroke="#444444" stroke-width="1.1" d="M376.3102,-63.4017C376.3102,-63.4017 291.6898,-63.4017 291.6898,-63.4017 285.6898,-63.4017 279.6898,-57.4017 279.6898,-51.4017 279.6898,-51.4017 279.6898,-28.1983 279.6898,-28.1983 279.6898,-22.1983 285.6898,-16.1983 291.6898,-16.1983 291.6898,-16.1983 376.3102,-16.1983 376.3102,-16.1983 382.3102,-16.1983 388.3102,-22.1983 388.3102,-28.1983 388.3102,-28.1983 388.3102,-51.4017 388.3102,-51.4017 388.3102,-57.4017 382.3102,-63.4017 376.3102,-63.4017"/>
<text text-anchor="middle" x="334" y="-49.7" font-family="Helvetica,sans-Serif" font-size="11.00" fill="#000000">Figure 2</text>
<text text-anchor="middle" x="334" y="-36.5" font-family="Helvetica,sans-Serif" font-size="11.00" fill="#000000">Map+Map+Sankey</text>
<text text-anchor="middle" x="334" y="-23.3" font-family="Helvetica,sans-Serif" font-size="11.00" fill="#000000">(combined)</text>
</g>
<!-- sp&#45;&gt;f2 -->
<g id="edge21" class="edge">
<title>sp&#45;&gt;f2</title>
<path fill="none" stroke="#666666" d="M240.0134,-138C251.0423,-138 259.6502,-138 259.6502,-138 259.6502,-138 259.6502,-39 259.6502,-39 259.6502,-39 272.5745,-39 272.5745,-39"/>
<polygon fill="#666666" stroke="#666666" points="272.5746,-41.4501 279.5745,-39 272.5745,-36.5501 272.5746,-41.4501"/>
</g>
<!-- sk&#45;&gt;f2 -->
<g id="edge22" class="edge">
<title>sk&#45;&gt;f2</title>
<path fill="none" stroke="#666666" d="M334,-123.0532C334,-123.0532 334,-70.4804 334,-70.4804"/>
<polygon fill="#666666" stroke="#666666" points="336.4501,-70.4804 334,-63.4804 331.5501,-70.4804 336.4501,-70.4804"/>
</g>
<!-- f5 -->
<g id="node19" class="node">
<title>f5</title>
<path fill="#e1d5f0" stroke="#444444" stroke-width="1.1" d="M490.4072,-57.2024C490.4072,-57.2024 431.5928,-57.2024 431.5928,-57.2024 425.792,-57.2024 419.9912,-51.4016 419.9912,-45.6008 419.9912,-45.6008 419.9912,-33.9992 419.9912,-33.9992 419.9912,-28.1984 425.792,-22.3976 431.5928,-22.3976 431.5928,-22.3976 490.4072,-22.3976 490.4072,-22.3976 496.208,-22.3976 502.0088,-28.1984 502.0088,-33.9992 502.0088,-33.9992 502.0088,-45.6008 502.0088,-45.6008 502.0088,-51.4016 496.208,-57.2024 490.4072,-57.2024"/>
<text text-anchor="middle" x="461" y="-43.1" font-family="Helvetica,sans-Serif" font-size="11.00" fill="#000000">Figure 5</text>
<text text-anchor="middle" x="461" y="-29.9" font-family="Helvetica,sans-Serif" font-size="11.00" fill="#000000">QC validation</text>
</g>
<!-- qc&#45;&gt;f5 -->
<g id="edge23" class="edge">
<title>qc&#45;&gt;f5</title>
<path fill="none" stroke="#666666" d="M466.942,-123.0532C466.942,-123.0532 466.942,-64.1624 466.942,-64.1624"/>
<polygon fill="#666666" stroke="#666666" points="469.3921,-64.1624 466.942,-57.1624 464.4921,-64.1625 469.3921,-64.1624"/>
</g>
<!-- t23 -->
<g id="node20" class="node">
<title>t23</title>
<path fill="#e1d5f0" stroke="#444444" stroke-width="1.1" d="M622.8547,-57.2024C622.8547,-57.2024 545.1453,-57.2024 545.1453,-57.2024 539.3445,-57.2024 533.5437,-51.4016 533.5437,-45.6008 533.5437,-45.6008 533.5437,-33.9992 533.5437,-33.9992 533.5437,-28.1984 539.3445,-22.3976 545.1453,-22.3976 545.1453,-22.3976 622.8547,-22.3976 622.8547,-22.3976 628.6555,-22.3976 634.4563,-28.1984 634.4563,-33.9992 634.4563,-33.9992 634.4563,-45.6008 634.4563,-45.6008 634.4563,-51.4016 628.6555,-57.2024 622.8547,-57.2024"/>
<text text-anchor="middle" x="584" y="-43.1" font-family="Helvetica,sans-Serif" font-size="11.00" fill="#000000">Tables 2 &amp; 3</text>
<text text-anchor="middle" x="584" y="-29.9" font-family="Helvetica,sans-Serif" font-size="11.00" fill="#000000">(metadata, order)</text>
</g>
<!-- ord&#45;&gt;t23 -->
<g id="edge24" class="edge">
<title>ord&#45;&gt;t23</title>
<path fill="none" stroke="#666666" d="M584,-123.0532C584,-123.0532 584,-64.1624 584,-64.1624"/>
<polygon fill="#666666" stroke="#666666" points="586.4501,-64.1624 584,-57.1624 581.5501,-64.1625 586.4501,-64.1624"/>
</g>
</g>
</svg>

